<?xml version="1.0" encoding="UTF-8" standalone="no"?>
<!-- Created with Inkscape (http://www.inkscape.org/) -->

<svg
   version="1.1"
   id="svg51232"
   xml:space="preserve"
   width="565.33331"
   height="494.66666"
   viewBox="0 0 565.33331 494.66666"
   sodipodi:docname="stratified.svg"
   inkscape:version="1.1.1 (3bf5ae0d25, 2021-09-20)"
   xmlns:inkscape="http://www.inkscape.org/namespaces/inkscape"
   xmlns:sodipodi="http://sodipodi.sourceforge.net/DTD/sodipodi-0.dtd"
   xmlns="http://www.w3.org/2000/svg"
   xmlns:svg="http://www.w3.org/2000/svg"><defs
     id="defs51236"><clipPath
       clipPathUnits="userSpaceOnUse"
       id="clipPath51260"><path
         d="m 112.55,28.05 h 292.9 v 252.39998 h -292.9 z"
         id="path51258" /></clipPath></defs><sodipodi:namedview
     id="namedview51234"
     pagecolor="#505050"
     bordercolor="#eeeeee"
     borderopacity="1"
     inkscape:pageshadow="0"
     inkscape:pageopacity="0"
     inkscape:pagecheckerboard="0"
     showgrid="false"
     inkscape:zoom="1.0855795"
     inkscape:cx="282.33767"
     inkscape:cy="247.33333"
     inkscape:window-width="1304"
     inkscape:window-height="745"
     inkscape:window-x="-8"
     inkscape:window-y="-8"
     inkscape:window-maximized="1"
     inkscape:current-layer="g51240" /><g
     id="g51238"
     inkscape:groupmode="layer"
     inkscape:label="stratified"
     transform="matrix(1.3333333,0,0,-1.3333333,0,494.66667)"><g
       id="g51240"
       transform="matrix(1,0,0,-1,0,371)"><g
         id="g51242"><path
           d="M 0,0 H 424 V 371 H 0 Z"
           style="fill:#ffffff;fill-opacity:1;fill-rule:nonzero;stroke:none"
           id="path51244" /><path
           d="m 112.5,280.5 h 293"
           style="fill:none;stroke:#333333;stroke-width:1;stroke-linecap:butt;stroke-linejoin:miter;stroke-miterlimit:10;stroke-dasharray:none;stroke-opacity:1"
           id="path51246" /><path
           d="m 112.5,217.5 h 293"
           style="fill:none;stroke:#cccccc;stroke-width:1;stroke-linecap:butt;stroke-linejoin:miter;stroke-miterlimit:10;stroke-dasharray:none;stroke-opacity:1"
           id="path51248" /><path
           d="m 112.5,154.5 h 293"
           style="fill:none;stroke:#cccccc;stroke-width:1;stroke-linecap:butt;stroke-linejoin:miter;stroke-miterlimit:10;stroke-dasharray:none;stroke-opacity:1"
           id="path51250" /><path
           d="m 112.5,91.5 h 293"
           style="fill:none;stroke:#cccccc;stroke-width:1;stroke-linecap:butt;stroke-linejoin:miter;stroke-miterlimit:10;stroke-dasharray:none;stroke-opacity:1"
           id="path51252" /><path
           d="m 112.5,28.5 h 293"
           style="fill:none;stroke:#cccccc;stroke-width:1;stroke-linecap:butt;stroke-linejoin:miter;stroke-miterlimit:10;stroke-dasharray:none;stroke-opacity:1"
           id="path51254" /><g
           id="g51256"
           clip-path="url(#clipPath51260)"><g
             id="g51262"><path
               d="m 201,281 v 0 h -57 -1 V 280 56 h 1 -1 c 0,-1.656853 1.34314,-3 3,-3 v 1 -1 h 53 v 1 -1 c 1.65686,0 3,1.343147 3,3 h -1 1 v 224 1 h -1 m 0,-2 v 1 h -1 V 56 56 c 0,-0.552284 -0.44771,-1 -1,-1 v 0 h -53 v 0 c -0.55229,0 -1,0.447716 -1,1 v 0 224 h -1 v -1 z"
               style="fill:#000000;fill-opacity:0;fill-rule:nonzero;stroke:none"
               id="path51264" /></g><path
             d="M 201,280 H 144 V 56 c 0,-1.10457 0.89543,-2 2,-2 h 53 c 1.10457,0 2,0.89543 2,2 z"
             style="fill:#5c6370;fill-opacity:1;fill-rule:nonzero;stroke:none"
             id="path51266" /><g
             id="g51268"><path
               d="m 288,281 v 0 h -57 -1 V 280 49 h 1 -1 c 0,-1.656853 1.34314,-3 3,-3 v 1 -1 h 53 v 1 -1 c 1.65686,0 3,1.343147 3,3 h -1 1 v 231 1 h -1 m 0,-2 v 1 h -1 V 49 49 c 0,-0.552284 -0.44772,-1 -1,-1 v 0 h -53 v 0 c -0.55229,0 -1,0.447716 -1,1 v 0 231 h -1 v -1 z"
               style="fill:#000000;fill-opacity:0;fill-rule:nonzero;stroke:none"
               id="path51270" /></g><path
             d="M 288,280 H 231 V 49 c 0,-1.10457 0.89543,-2 2,-2 h 53 c 1.10458,0 2,0.89543 2,2 z"
             style="fill:#5c6370;fill-opacity:1;fill-rule:nonzero;stroke:none"
             id="path51272" /><g
             id="g51274"><path
               d="m 375,281 v 0 h -57 -1 V 280 64 h 1 -1 c 0,-1.656853 1.34314,-3 3,-3 v 1 -1 h 53 v 1 -1 c 1.65686,0 3,1.343147 3,3 h -1 1 v 216 1 h -1 m 0,-2 v 1 h -1 V 64 64 c 0,-0.552284 -0.44772,-1 -1,-1 v 0 h -53 v 0 c -0.55228,0 -1,0.447716 -1,1 v 0 216 h -1 v -1 z"
               style="fill:#000000;fill-opacity:0;fill-rule:nonzero;stroke:none"
               id="path51276" /></g><path
             d="M 375,280 H 318 V 64 c 0,-1.10457 0.89542,-2 2,-2 h 53 c 1.10458,0 2,0.89543 2,2 z"
             style="fill:#5c6370;fill-opacity:1;fill-rule:nonzero;stroke:none"
             id="path51278" /></g></g><g
         id="g51280"><g
           id="g51282"><text
             style="font-variant:normal;font-weight:normal;font-size:22px;font-family:Arial;-inkscape-font-specification:ArialMT;writing-mode:lr-tb;fill:#000000;fill-opacity:1;fill-rule:nonzero;stroke:none"
             id="text51286"
             x="127.96094"
             y="339.45001"><tspan
               sodipodi:role="line"
               id="tspan51284"
               style="font-size:22px"
               x="127.96094"
               y="339.45001">Form size range (percentile)</tspan></text><g
             id="g51288"
             transform="rotate(-90,29.55,307.45)"><text
               style="font-variant:normal;font-weight:normal;font-size:22px;font-family:Arial;-inkscape-font-specification:ArialMT;writing-mode:lr-tb;fill:#000000;fill-opacity:1;fill-rule:nonzero;stroke:none"
               id="text51292"
               x="120"
               y="324.45001"><tspan
                 sodipodi:role="line"
                 id="tspan51290"
                 style="font-size:22px"
                 x="120"
                 y="324.45001">F1-measure</tspan></text><g
               id="g51294"
               transform="rotate(90,29.55,307.45)"><text
                 style="font-variant:normal;font-weight:normal;font-size:20px;font-family:Arial;-inkscape-font-specification:ArialMT;writing-mode:lr-tb;fill:#000000;fill-opacity:1;fill-rule:nonzero;stroke:none"
                 id="text51298"
                 x="77.050003"
                 y="285.95001"><tspan
                   sodipodi:role="line"
                   id="tspan51296"
                   x="77.050003"
                   y="285.95001"
                   style="font-size:20px">0%</tspan></text><g
                 id="g51300"><text
                   style="font-variant:normal;font-weight:normal;font-size:20px;font-family:Arial;-inkscape-font-specification:ArialMT;writing-mode:lr-tb;fill:#000000;fill-opacity:1;fill-rule:nonzero;stroke:none"
                   id="text51304"
                   x="68.050003"
                   y="222.85001"><tspan
                     sodipodi:role="line"
                     id="tspan51302"
                     style="font-size:20px"
                     x="68.050003"
                     y="222.85001">25%</tspan></text><g
                   id="g51306"><text
                     style="font-variant:normal;font-weight:normal;font-size:20px;font-family:Arial;-inkscape-font-specification:ArialMT;writing-mode:lr-tb;fill:#000000;fill-opacity:1;fill-rule:nonzero;stroke:none"
                     id="text51310"
                     x="68.050003"
                     y="159.75"><tspan
                       sodipodi:role="line"
                       id="tspan51308"
                       style="font-size:20px"
                       x="68.050003"
                       y="159.75">50%</tspan></text><g
                     id="g51312"><text
                       style="font-variant:normal;font-weight:normal;font-size:20px;font-family:Arial;-inkscape-font-specification:ArialMT;writing-mode:lr-tb;fill:#000000;fill-opacity:1;fill-rule:nonzero;stroke:none"
                       id="text51316"
                       x="68.050003"
                       y="96.650002"><tspan
                         sodipodi:role="line"
                         id="tspan51314"
                         style="font-size:20px"
                         x="68.050003"
                         y="96.650002">75%</tspan></text><g
                       id="g51318"><text
                         style="font-variant:normal;font-weight:normal;font-size:20px;font-family:Arial;-inkscape-font-specification:ArialMT;writing-mode:lr-tb;fill:#000000;fill-opacity:1;fill-rule:nonzero;stroke:none"
                         id="text51322"
                         x="59.049999"
                         y="33.549999"><tspan
                           sodipodi:role="line"
                           id="tspan51320"
                           style="font-size:20px"
                           x="59.049999"
                           y="33.549999">100%</tspan></text><g
                         id="g51324"><text
                           style="font-variant:normal;font-weight:normal;font-size:20px;font-family:Arial;-inkscape-font-specification:ArialMT;writing-mode:lr-tb;fill:#000000;fill-opacity:1;fill-rule:nonzero;stroke:none"
                           id="text51328"
                           x="145.56717"
                           y="303.45001"><tspan
                             sodipodi:role="line"
                             id="tspan51326"
                             style="font-size:20px"
                             x="145.56717"
                             y="303.45001">0 - 33</tspan></text><g
                           id="g51330"><text
                             style="font-variant:normal;font-weight:normal;font-size:20px;font-family:Arial;-inkscape-font-specification:ArialMT;writing-mode:lr-tb;fill:#000000;fill-opacity:1;fill-rule:nonzero;stroke:none"
                             id="text51334"
                             x="228.5"
                             y="303.45001"><tspan
                               sodipodi:role="line"
                               id="tspan51332"
                               style="font-size:20px"
                               x="228.5"
                               y="303.45001">33 - 66</tspan></text><g
                             id="g51336"
                             transform="translate(-6)"><text
                               transform="translate(317.43283,303.45)"
                               style="font-variant:normal;font-weight:normal;font-size:20px;font-family:Arial;-inkscape-font-specification:ArialMT;writing-mode:lr-tb;fill:#000000;fill-opacity:1;fill-rule:nonzero;stroke:none"
                               id="text51340"><tspan
                                 sodipodi:role="line"
                                 id="tspan51338"
                                 style="font-size:20px"
                                 x="0"
                                 y="0">66 - 100</tspan></text></g></g></g></g></g></g></g></g></g></g></g></g></g></svg>
